<?xml version="1.0" encoding="UTF-8"?>
<svg width="105px" height="29px" viewBox="0 0 105 29" version="1.1" xmlns="http://www.w3.org/2000/svg" xmlns:xlink="http://www.w3.org/1999/xlink">
    <!-- Generator: Sketch 42 (36781) - http://www.bohemiancoding.com/sketch -->
    <title>leadify-logo-nav</title>
    <desc>Created with Sketch.</desc>
    <defs></defs>
    <g id="Page-1" stroke="none" stroke-width="1" fill="none" fill-rule="evenodd">
        <g id="leadify-logo-nav">
            <path d="M26.848,2.712 L28.752,2.712 L28.752,23.32 L26.848,23.32 L26.848,2.712 Z M43.3140001,18.504 L44.9380001,19.344 C43.3326587,22.3306816 40.9620157,23.824 37.8260001,23.824 C35.5859889,23.824 33.7380073,23.0540077 32.2820001,21.514 C30.8259928,19.9739923 30.0980001,18.1213442 30.0980001,15.956 C30.0980001,13.7906558 30.8306594,11.9333411 32.2960001,10.384 C33.7613407,8.83465892 35.5719893,8.06 37.7280001,8.06 C39.8840108,8.06 41.6946594,8.77865948 43.1600001,10.216 C44.6253407,11.6533405 45.3859998,13.6133209 45.4420001,16.096 L32.0580001,16.096 C32.1140003,17.888009 32.6786614,19.3299945 33.7520001,20.422 C34.8253388,21.5140055 36.1273257,22.06 37.6580001,22.06 C40.1780127,22.06 42.0633271,20.8746785 43.3140001,18.504 Z M43.3140001,14.444 C43.0526654,13.0253262 42.3993386,11.9146707 41.3540001,11.112 C40.3086615,10.3093293 39.1046735,9.908 37.7420001,9.908 C34.9419861,9.908 33.112671,11.4199849 32.2540001,14.444 L43.3140001,14.444 Z M61.8800001,8.452 L61.8800001,23.32 L60.0040001,23.32 L60.0040001,20.772 C58.3053249,22.8066768 56.364011,23.824 54.1800001,23.824 C51.9959892,23.824 50.1526743,23.0446745 48.6500001,21.486 C47.1473259,19.9273255 46.3960001,18.0700108 46.3960001,15.914 C46.3960001,13.7579892 47.1519925,11.9100077 48.6640001,10.37 C50.1760077,8.8299923 51.9866562,8.06 54.0960001,8.06 C56.5226789,8.06 58.4919925,9.09598964 60.0040001,11.168 L60.0040001,8.452 L61.8800001,8.452 Z M60.1160001,15.956 C60.1160001,14.2573248 59.5466725,12.8246725 58.4080001,11.658 C57.2693277,10.4913275 55.8740084,9.908 54.2220001,9.908 C52.5699918,9.908 51.1746725,10.509994 50.0360001,11.714 C48.8973277,12.918006 48.3280001,14.3413251 48.3280001,15.984 C48.3280001,17.6266749 48.906661,19.049994 50.0640001,20.254 C51.2213392,21.458006 52.6073254,22.06 54.2220001,22.06 C55.8366748,22.06 57.222661,21.4813391 58.3800001,20.324 C59.5373392,19.1666609 60.1160001,17.7106754 60.1160001,15.956 Z M79.1020002,2.712 L79.1020002,23.32 L77.2260002,23.32 L77.2260002,20.772 C75.527325,22.8066768 73.5813445,23.824 71.3880002,23.824 C69.1946559,23.824 67.351341,23.0493411 65.8580002,21.5 C64.3646594,19.9506589 63.6180002,18.0933442 63.6180002,15.928 C63.6180002,13.7626558 64.3739926,11.9100077 65.8860002,10.37 C67.3980077,8.8299923 69.2086563,8.06 71.3180002,8.06 C73.744679,8.06 75.7139926,9.09598964 77.2260002,11.168 L77.2260002,2.712 L79.1020002,2.712 Z M77.3380002,15.984 C77.3380002,14.2853248 76.7780058,12.8480059 75.6580002,11.672 C74.5379946,10.4959941 73.1380086,9.908 71.4580002,9.908 C69.7779918,9.908 68.3733391,10.509994 67.2440002,11.714 C66.1146612,12.918006 65.5500002,14.3366585 65.5500002,15.97 C65.5500002,17.6033415 66.128661,19.0266606 67.2860002,20.24 C68.4433393,21.4533394 69.8106589,22.06 71.3880002,22.06 C72.9653414,22.06 74.3513275,21.4860057 75.5460002,20.338 C76.7406728,19.1899943 77.3380002,17.7386754 77.3380002,15.984 Z M80.6160002,4.308 C80.6160002,3.87866452 80.7699987,3.50533492 81.0780002,3.188 C81.3860017,2.87066508 81.7593313,2.712 82.1980002,2.712 C82.6366691,2.712 83.0099987,2.86599846 83.3180002,3.174 C83.6260017,3.48200154 83.7800002,3.85533114 83.7800002,4.294 C83.7800002,4.73266886 83.6260017,5.10599846 83.3180002,5.414 C83.0099987,5.72200154 82.6366691,5.876 82.1980002,5.876 C81.7593313,5.876 81.3860017,5.71733492 81.0780002,5.4 C80.7699987,5.08266508 80.6160002,4.71866872 80.6160002,4.308 Z" id="leadify" fill="#30E955"></path>
            <path d="M90.7830003,8.452 L92.4640003,8.452 L97.5880003,19.904 L102.544,8.452 L104.588,8.452 L95.7120003,28.752 L93.6960003,28.752 L96.5520003,22.2 L91.1180003,9.96103658 L91.1180003,10.076 L88.0100003,10.076 L88.0100003,23.32 L86.0780003,23.32 L86.0780003,10.076 L84.1460003,10.076 L84.1460003,8.452 L86.0780003,8.452 L86.0780003,6.52 C86.0780003,5.2133268 86.3206645,4.25200308 86.8060003,3.636 C87.291336,3.01999692 88.0473285,2.712 89.0740003,2.712 C89.6713366,2.712 90.4179958,2.84266536 91.3140003,3.104 L91.3140003,4.98 C90.5859966,4.66266508 89.9373364,4.504 89.3680003,4.504 C88.7986641,4.504 88.4300011,4.68599818 88.2620003,5.05 C88.0939994,5.41400182 88.0100003,6.00666256 88.0100003,6.828 L88.0100003,8.452 L90.7830003,8.452 Z M81.2320002,8.452 L83.1640002,8.452 L83.1640002,23.32 L81.2320002,23.32 L81.2320002,8.452 Z" id="Combined-Shape" fill="#FFFFFF"></path>
            <path d="M23.4380806,19.1178747 L20.4914625,17.4332931 L22.9791098,15.9674923 C23.3790383,15.7768592 23.5028127,15.2455233 23.2753734,14.8548873 C23.043842,14.454843 22.5441067,14.3704771 22.1647553,14.5892193 L18.8479832,16.5113212 L13.5766979,13.4765757 L18.8479442,10.4731012 L22.1647163,12.3920798 C22.2683033,12.4670761 22.4015869,12.5108399 22.5497966,12.5108399 C22.8309001,12.5108399 23.0826968,12.3795869 23.2753344,12.1295351 C23.4974346,11.7326141 23.3789993,11.2075632 22.9790708,11.01693 L20.4914235,9.55112926 L23.4380416,7.86658622 C23.8221086,7.64780538 23.954184,7.15711011 23.7343052,6.7539426 C23.5242862,6.36639128 23.0046363,6.23201497 22.6088388,6.46016552 L19.6473725,8.16036331 L19.6031395,5.22876177 C19.5962026,4.77558391 19.2477558,4.40989525 18.788785,4.40989525 C18.3298922,4.40989525 17.971001,4.80369305 17.9744695,5.22876177 L18.0038542,9.0979514 L12.7623044,12.1014259 L12.7623044,6.0069491 L16.0642672,4.1442273 C16.4497372,3.92856969 16.6177056,3.42538148 16.3899544,3.03162224 C16.1586958,2.63157797 15.6839805,2.51277928 15.2793364,2.73784515 L12.7623044,4.14426585 L12.7623044,0.818827965 C12.7623044,0.365650103 12.3920724,0 11.9331016,0 C11.4741308,0 11.1187471,0.365650103 11.1187471,0.818827965 L11.1187471,4.17545967 L8.51266451,2.73780659 C8.10673435,2.51590252 7.64460687,2.64090912 7.41685573,3.03158368 C7.1856361,3.43162795 7.32936406,3.92232322 7.72769472,4.14418874 L11.1187471,6.03505823 L11.1187471,12.070155 L5.75848915,9.01042364 L5.78818566,5.22872321 C5.83273041,4.80369305 5.44765016,4.40985669 4.98867939,4.40985669 L4.95898289,4.40985669 C4.52966965,4.40985669 4.14938292,4.77554535 4.14462837,5.22872321 L4.11493186,8.07279699 L1.22774579,6.43197926 C0.824660564,6.20070548 0.327146695,6.33820503 0.117088748,6.72263312 C-0.10279009,7.12892386 0.0109295927,7.60712618 0.413391266,7.83839997 L3.33027385,9.50732683 L0.783311495,11.0168915 C0.38365579,11.2075632 0.258868119,11.7388605 0.502130031,12.1295351 C0.658796627,12.3827101 0.886898512,12.5108399 1.19801031,12.5108399 C1.36067856,12.5108399 1.49618347,12.4701993 1.62728458,12.3920798 L4.95894391,10.4449535 L10.3043925,13.4765757 L4.95894391,16.5394303 L1.62728458,14.5892193 C1.22735607,14.3579455 0.711837232,14.467336 0.50209106,14.8548873 C0.282212222,15.2580548 0.401621786,15.7425036 0.783233551,15.9674923 L3.33023487,17.4614022 L0.413313323,19.1459838 C0.0118259438,19.3772576 -0.118339834,19.8648297 0.117010805,20.2617507 C0.281627645,20.5367884 0.502130031,20.6712032 0.812969027,20.6712032 C0.886898512,20.6712032 1.03503029,20.6274394 1.22774579,20.5524431 L4.11493186,18.9116254 L4.14462837,21.7556992 C4.14938292,22.208877 4.52966965,22.5589109 4.95898289,22.5589109 L4.98867939,22.5589109 C5.44765016,22.5589109 5.79165415,22.1807293 5.78818566,21.7244282 L5.75848915,17.945851 L11.1187471,14.9142674 L11.1187471,20.9180932 L7.72769472,22.8089241 C7.32305063,23.0339515 7.18150509,23.5246467 7.41685573,23.9215678 C7.5814336,24.1997287 7.80193598,24.334105 8.11273601,24.334105 C8.26090675,24.334105 8.39734699,24.3091191 8.51266451,24.243454 L11.1187471,22.7807379 L11.1187471,26.193665 C11.1187471,26.6468428 11.4741308,27 11.9331016,27 C12.3920724,27 12.7623044,26.6468428 12.7623044,26.193665 L12.7623044,22.8369947 L15.2793364,24.243454 C15.394576,24.3090805 15.5310552,24.334105 15.6644166,24.334105 C15.9900259,24.334105 16.2301311,24.2028519 16.3899544,23.9215678 C16.6148606,23.52777 16.4695738,23.0339129 16.0642672,22.8089241 L12.7623044,20.9774733 L12.7623044,14.8829964 L18.0038542,17.886471 L17.9744695,21.7244282 C17.9706502,22.1807293 18.3298532,22.5589109 18.788824,22.5589109 C19.2477948,22.5589109 19.5962026,22.208877 19.6031395,21.7556992 L19.6473725,18.8084814 L22.6088388,20.5242954 C22.7231821,20.589922 22.8754059,20.6118232 23.0384249,20.6118232 C23.3493028,20.6118232 23.5773268,20.4836933 23.7342662,20.2305183 C23.9772943,19.8398438 23.8221476,19.3366556 23.4380806,19.1178747 Z" id="Shape" fill="#30E856" fill-rule="nonzero"></path>
        </g>
    </g>
</svg>