<?xml version="1.0" encoding="UTF-8"?>
<svg width="79px" height="27px" viewBox="0 0 79 27" version="1.1" xmlns="http://www.w3.org/2000/svg" xmlns:xlink="http://www.w3.org/1999/xlink">
    <!-- Generator: Sketch 42 (36781) - http://www.bohemiancoding.com/sketch -->
    <title>leadify-logo-nav</title>
    <desc>Created with Sketch.</desc>
    <defs></defs>
    <g id="Page-1" stroke="none" stroke-width="1" fill="none" fill-rule="evenodd">
        <g id="leadify-logo-nav">
            <path d="M0.848,0.712 L2.752,0.712 L2.752,21.32 L0.848,21.32 L0.848,0.712 Z M17.3140001,16.504 L18.9380001,17.344 C17.3326587,20.3306816 14.9620157,21.824 11.8260001,21.824 C9.58598885,21.824 7.73800733,21.0540077 6.28200005,19.514 C4.82599277,17.9739923 4.09800005,16.1213442 4.09800005,13.956 C4.09800005,11.7906558 4.83065939,9.93334108 6.29600005,8.384 C7.76134071,6.83465892 9.57198927,6.06 11.7280001,6.06 C13.8840108,6.06 15.6946594,6.77865948 17.1600001,8.216 C18.6253407,9.65334052 19.3859998,11.6133209 19.4420001,14.096 L6.05800005,14.096 C6.11400033,15.888009 6.67866135,17.3299945 7.75200005,18.422 C8.82533875,19.5140055 10.1273257,20.06 11.6580001,20.06 C14.1780127,20.06 16.0633271,18.8746785 17.3140001,16.504 Z M17.3140001,12.444 C17.0526654,11.0253262 16.3993386,9.91467068 15.3540001,9.112 C14.3086615,8.30932932 13.1046735,7.908 11.7420001,7.908 C8.94198605,7.908 7.11267101,9.41998488 6.25400005,12.444 L17.3140001,12.444 Z M35.8800001,6.452 L35.8800001,21.32 L34.0040001,21.32 L34.0040001,18.772 C32.3053249,20.8066768 30.364011,21.824 28.1800001,21.824 C25.9959892,21.824 24.1526743,21.0446745 22.6500001,19.486 C21.1473259,17.9273255 20.3960001,16.0700108 20.3960001,13.914 C20.3960001,11.7579892 21.1519925,9.9100077 22.6640001,8.37 C24.1760077,6.8299923 25.9866562,6.06 28.0960001,6.06 C30.5226789,6.06 32.4919925,7.09598964 34.0040001,9.168 L34.0040001,6.452 L35.8800001,6.452 Z M34.1160001,13.956 C34.1160001,12.2573248 33.5466725,10.8246725 32.4080001,9.658 C31.2693277,8.4913275 29.8740084,7.908 28.2220001,7.908 C26.5699918,7.908 25.1746725,8.50999398 24.0360001,9.714 C22.8973277,10.918006 22.3280001,12.3413251 22.3280001,13.984 C22.3280001,15.6266749 22.906661,17.049994 24.0640001,18.254 C25.2213392,19.458006 26.6073254,20.06 28.2220001,20.06 C29.8366748,20.06 31.222661,19.4813391 32.3800001,18.324 C33.5373392,17.1666609 34.1160001,15.7106754 34.1160001,13.956 Z M53.1020002,0.712 L53.1020002,21.32 L51.2260002,21.32 L51.2260002,18.772 C49.527325,20.8066768 47.5813445,21.824 45.3880002,21.824 C43.1946559,21.824 41.351341,21.0493411 39.8580002,19.5 C38.3646594,17.9506589 37.6180002,16.0933442 37.6180002,13.928 C37.6180002,11.7626558 38.3739926,9.9100077 39.8860002,8.37 C41.3980077,6.8299923 43.2086563,6.06 45.3180002,6.06 C47.744679,6.06 49.7139926,7.09598964 51.2260002,9.168 L51.2260002,0.712 L53.1020002,0.712 Z M51.3380002,13.984 C51.3380002,12.2853248 50.7780058,10.8480059 49.6580002,9.672 C48.5379946,8.49599412 47.1380086,7.908 45.4580002,7.908 C43.7779918,7.908 42.3733391,8.50999398 41.2440002,9.714 C40.1146612,10.918006 39.5500002,12.3366585 39.5500002,13.97 C39.5500002,15.6033415 40.128661,17.0266606 41.2860002,18.24 C42.4433393,19.4533394 43.8106589,20.06 45.3880002,20.06 C46.9653414,20.06 48.3513275,19.4860057 49.5460002,18.338 C50.7406728,17.1899943 51.3380002,15.7386754 51.3380002,13.984 Z M54.6160002,2.308 C54.6160002,1.87866452 54.7699987,1.50533492 55.0780002,1.188 C55.3860017,0.87066508 55.7593313,0.712 56.1980002,0.712 C56.6366691,0.712 57.0099987,0.86599846 57.3180002,1.174 C57.6260017,1.48200154 57.7800002,1.85533114 57.7800002,2.294 C57.7800002,2.73266886 57.6260017,3.10599846 57.3180002,3.414 C57.0099987,3.72200154 56.6366691,3.876 56.1980002,3.876 C55.7593313,3.876 55.3860017,3.71733492 55.0780002,3.4 C54.7699987,3.08266508 54.6160002,2.71866872 54.6160002,2.308 Z" id="leadify" fill="#30E955"></path>
            <path d="M64.7830003,6.452 L66.4640003,6.452 L71.5880003,17.904 L76.5440003,6.452 L78.5880003,6.452 L69.7120003,26.752 L67.6960003,26.752 L70.5520003,20.2 L65.1180003,7.96103658 L65.1180003,8.076 L62.0100003,8.076 L62.0100003,21.32 L60.0780003,21.32 L60.0780003,8.076 L58.1460003,8.076 L58.1460003,6.452 L60.0780003,6.452 L60.0780003,4.52 C60.0780003,3.2133268 60.3206645,2.25200308 60.8060003,1.636 C61.291336,1.01999692 62.0473285,0.712 63.0740003,0.712 C63.6713366,0.712 64.4179958,0.84266536 65.3140003,1.104 L65.3140003,2.98 C64.5859966,2.66266508 63.9373364,2.504 63.3680003,2.504 C62.7986641,2.504 62.4300011,2.68599818 62.2620003,3.05 C62.0939994,3.41400182 62.0100003,4.00666256 62.0100003,4.828 L62.0100003,6.452 L64.7830003,6.452 Z M55.2320002,6.452 L57.1640002,6.452 L57.1640002,21.32 L55.2320002,21.32 L55.2320002,6.452 Z" id="Combined-Shape" fill="#FFFFFF"></path>
        </g>
    </g>
</svg>