<?xml version="1.0" encoding="UTF-8"?>
<svg width="132px" height="24px" viewBox="0 0 132 24" version="1.1" xmlns="http://www.w3.org/2000/svg" xmlns:xlink="http://www.w3.org/1999/xlink">
    <!-- Generator: Sketch 42 (36781) - http://www.bohemiancoding.com/sketch -->
    <title>leadify-logo-nav</title>
    <desc>Created with Sketch.</desc>
    <defs></defs>
    <g id="Page-1" stroke="none" stroke-width="1" fill="none" fill-rule="evenodd">
        <g id="leadify-logo-nav">
            <path d="M53.436,3.01105449 L55.48,3.01105449 L55.48,21.1830545 L63.208,21.1830545 L63.208,23.1150545 L53.436,23.1150545 L53.436,3.01105449 Z M76.6500001,18.2990545 L78.2740001,19.1390545 C76.6686587,22.1257361 74.2980157,23.6190545 71.1620001,23.6190545 C68.9219889,23.6190545 67.0740073,22.8490622 65.6180001,21.3090545 C64.1619928,19.7690468 63.4340001,17.9163987 63.4340001,15.7510545 C63.4340001,13.5857103 64.1666594,11.7283956 65.6320001,10.1790545 C67.0973407,8.62971341 68.9079893,7.85505449 71.0640001,7.85505449 C73.2200108,7.85505449 75.0306594,8.57371397 76.4960001,10.0110545 C77.9613407,11.448395 78.7219998,13.4083754 78.7780001,15.8910545 L65.3940001,15.8910545 C65.4500003,17.6830635 66.0146614,19.125049 67.0880001,20.2170545 C68.1613388,21.30906 69.4633257,21.8550545 70.9940001,21.8550545 C73.5140127,21.8550545 75.3993271,20.669733 76.6500001,18.2990545 Z M76.6500001,14.2390545 C76.3886654,12.8203807 75.7353386,11.7097252 74.6900001,10.9070545 C73.6446615,10.1043838 72.4406735,9.70305449 71.0780001,9.70305449 C68.2779861,9.70305449 66.448671,11.2150394 65.5900001,14.2390545 L76.6500001,14.2390545 Z M95.2160001,8.24705449 L95.2160001,23.1150545 L93.3400001,23.1150545 L93.3400001,20.5670545 C91.6413249,22.6017313 89.700011,23.6190545 87.5160001,23.6190545 C85.3319892,23.6190545 83.4886743,22.839729 81.9860001,21.2810545 C80.4833259,19.72238 79.7320001,17.8650653 79.7320001,15.7090545 C79.7320001,13.5530437 80.4879925,11.7050622 82.0000001,10.1650545 C83.5120077,8.62504679 85.3226562,7.85505449 87.4320001,7.85505449 C89.8586789,7.85505449 91.8279925,8.89104413 93.3400001,10.9630545 L93.3400001,8.24705449 L95.2160001,8.24705449 Z M93.4520001,15.7510545 C93.4520001,14.0523793 92.8826725,12.619727 91.7440001,11.4530545 C90.6053277,10.286382 89.2100084,9.70305449 87.5580001,9.70305449 C85.9059918,9.70305449 84.5106725,10.3050485 83.3720001,11.5090545 C82.2333277,12.7130605 81.6640001,14.1363796 81.6640001,15.7790545 C81.6640001,17.4217294 82.242661,18.8450485 83.4000001,20.0490545 C84.5573392,21.2530605 85.9433254,21.8550545 87.5580001,21.8550545 C89.1726748,21.8550545 90.558661,21.2763936 91.7160001,20.1190545 C92.8733392,18.9617154 93.4520001,17.5057299 93.4520001,15.7510545 Z M112.438,2.50705449 L112.438,23.1150545 L110.562,23.1150545 L110.562,20.5670545 C108.863325,22.6017313 106.917344,23.6190545 104.724,23.6190545 C102.530656,23.6190545 100.687341,22.8443956 99.1940002,21.2950545 C97.7006594,19.7457134 96.9540002,17.8883987 96.9540002,15.7230545 C96.9540002,13.5577103 97.7099926,11.7050622 99.2220002,10.1650545 C100.734008,8.62504679 102.544656,7.85505449 104.654,7.85505449 C107.080679,7.85505449 109.049993,8.89104413 110.562,10.9630545 L110.562,2.50705449 L112.438,2.50705449 Z M110.674,15.7790545 C110.674,14.0803793 110.114006,12.6430604 108.994,11.4670545 C107.873995,10.2910486 106.474009,9.70305449 104.794,9.70305449 C103.113992,9.70305449 101.709339,10.3050485 100.58,11.5090545 C99.4506612,12.7130605 98.8860002,14.131713 98.8860002,15.7650545 C98.8860002,17.398396 99.464661,18.8217151 100.622,20.0350545 C101.779339,21.2483939 103.146659,21.8550545 104.724,21.8550545 C106.301341,21.8550545 107.687328,21.2810602 108.882,20.1330545 C110.076673,18.9850488 110.674,17.5337299 110.674,15.7790545 Z" id="Leadin" fill="#FFFFFF"></path>
            <path d="M118.518,8.24705449 L120.45,8.24705449 L120.45,10.9070545 C121.980675,8.87237765 123.837989,7.85505449 126.022,7.85505449 C127.142006,7.85505449 128.149996,8.15838479 129.046,8.76505449 C129.942005,9.37172419 130.576665,10.1650496 130.95,11.1450545 C131.323335,12.1250594 131.51,13.567045 131.51,15.4710545 L131.51,23.1150545 L129.606,23.1150545 L129.606,16.0310545 C129.606,14.2950458 129.526668,13.1190576 129.368,12.5030545 C129.209333,11.8870514 128.966669,11.36439 128.64,10.9350545 C128.313332,10.505719 127.898003,10.1790556 127.394,9.95505449 C126.889998,9.73105337 126.278671,9.61905449 125.56,9.61905449 C124.84133,9.61905449 124.13667,9.79638605 123.446,10.1510545 C122.75533,10.5057229 122.167336,11.0003847 121.682,11.6350545 C121.196665,12.2697243 120.870001,12.9230511 120.702,13.5950545 C120.533999,14.2670579 120.45,15.6203777 120.45,17.6550545 L120.45,23.1150545 L118.518,23.1150545 L118.518,8.24705449 Z M114.568,8.24705449 L116.5,8.24705449 L116.5,23.1150545 L114.568,23.1150545 L114.568,8.24705449 Z M113.952,4.10305449 C113.952,3.67371901 114.105999,3.30038941 114.414,2.98305449 C114.722002,2.66571957 115.095331,2.50705449 115.534,2.50705449 C115.972669,2.50705449 116.345999,2.66105295 116.654,2.96905449 C116.962002,3.27705603 117.116,3.65038563 117.116,4.08905449 C117.116,4.52772335 116.962002,4.90105295 116.654,5.20905449 C116.345999,5.51705603 115.972669,5.67105449 115.534,5.67105449 C115.095331,5.67105449 114.722002,5.51238941 114.414,5.19505449 C114.105999,4.87771957 113.952,4.51372321 113.952,4.10305449 Z" id="Combined-Shape" fill="#3AC2F5"></path>
            <path d="M45.1657051,16.076564 C43.7697688,16.076564 42.5444192,16.802566 41.8414522,17.8978277 L33.244634,13.7690041 C33.2908736,13.585626 33.3227414,13.3947375 33.3227414,13.1969646 C33.3227414,11.8813988 32.2536067,10.8130493 30.9407767,10.8130493 C29.6248224,10.8130493 28.5581871,11.8813988 28.5581871,13.1969646 C28.5581871,13.5731087 28.6531658,13.9229666 28.8075061,14.2409054 L26.881064,15.9326153 L22.302093,13.0035726 C22.3802004,12.7613633 22.4314389,12.5072626 22.4314389,12.2381412 C22.4314389,11.9058075 22.3658286,11.5903721 22.248355,11.2993455 L26.1393557,8.59561374 C26.5155211,9.01118732 27.0572744,9.28030876 27.6621385,9.28030876 C28.8025072,9.28030876 29.7248,8.35340444 29.7248,7.21433228 C29.7248,6.91391765 29.6591897,6.63227893 29.5442155,6.37567476 L31.5337685,5.10454534 C31.8243282,5.35176155 32.1948699,5.50572405 32.6054026,5.50572405 C33.2396351,5.50572405 33.7863873,5.14397476 34.0669492,4.61824915 L38.7096559,5.64716927 L38.9296065,4.64954234 L34.245659,3.61060839 C34.2356613,3.53988578 34.2212895,3.46916317 34.201294,3.40031815 L35.5466167,2.53975539 C35.8103074,2.79197851 36.1664774,2.94844447 36.5570147,2.94844447 C37.3724564,2.94844447 38.0310584,2.28815813 38.0310584,1.4739093 C38.0310584,0.659660469 37.3724564,0 36.5570147,0 C35.7465718,0 35.0873449,0.659660469 35.0873449,1.4739093 C35.0873449,1.52272668 35.0948432,1.56716301 35.0998421,1.61347693 L33.6426696,2.5447623 C33.3571087,2.31507028 32.9984393,2.1711216 32.6054026,2.1711216 C31.6849845,2.1711216 30.9407767,2.91902887 30.9407767,3.83842282 C30.9407767,3.97486114 30.9626468,4.10942186 30.9920152,4.23647221 L28.9024847,5.5739432 C28.5556877,5.30982867 28.1307832,5.1483558 27.6621385,5.1483558 C27.0597738,5.1483558 26.5223946,5.40996688 26.146854,5.823037 L23.3274875,5.18778522 C23.3274875,5.17526795 23.329987,5.16087308 23.329987,5.1483558 C23.329987,5.07262628 23.3174898,5.00190367 23.3081169,4.93118106 L25.8394231,3.66693614 C26.1293579,3.99739223 26.551763,4.20956007 27.0254066,4.20956007 C27.8989603,4.20956007 28.6094256,3.50108222 28.6094256,2.62549874 C28.6094256,1.74803766 27.8989603,1.03893395 27.0254066,1.03893395 C26.1518529,1.03893395 25.4413875,1.74803766 25.4413875,2.62549874 C25.4413875,2.65741779 25.4488858,2.68683339 25.4507604,2.71875244 L22.8732146,4.00427674 C22.5707826,3.68446032 22.1433786,3.48105458 21.6678605,3.48105458 C21.0792428,3.48105458 20.5643585,3.78897958 20.2687999,4.24898949 L19.1490515,3.80149686 C19.1490515,3.78710199 19.1534255,3.77208126 19.1534255,3.75768639 C19.1534255,2.8821029 18.443585,2.1711216 17.566907,2.1711216 C17.1007618,2.1711216 16.685855,2.37890839 16.3952953,2.6987248 L15.702326,2.42271886 C15.6485881,1.71111169 15.0605952,1.14908598 14.3351333,1.14908598 C13.5765537,1.14908598 12.9585676,1.76743943 12.9585676,2.52786398 C12.9585676,3.29079198 13.5765537,3.90664198 14.3351333,3.90664198 C14.7625372,3.90664198 15.1405773,3.70886901 15.3948951,3.40031815 L15.9953852,3.64002399 C15.9928857,3.67945341 15.9853874,3.71825697 15.9853874,3.75768639 C15.9853874,4.63264401 16.6933533,5.34425118 17.566907,5.34425118 C18.0624207,5.34425118 18.497323,5.1120557 18.7897572,4.75719091 L20.0126074,5.24911988 C20.0176063,5.30732521 20.0226052,5.36615641 20.0301035,5.42248416 L15.8947828,7.48595718 C15.5292399,7.02344382 14.9699906,6.72302918 14.3351333,6.72302918 C13.2322561,6.72302918 12.3362075,7.6205179 12.3362075,8.72516755 C12.3362075,8.89915769 12.3655759,9.0650116 12.4068166,9.22648447 L5.50649221,12.6687355 C4.99160791,11.9158213 4.12742711,11.4195113 3.14639756,11.4195113 C1.56487795,11.4195113 0.285790387,12.703158 0.285790387,14.2847159 C0.285790387,15.8662738 1.56487795,17.147417 3.14639756,17.147417 C4.72354315,17.147417 6.00700474,15.8662738 6.00700474,14.2847159 C6.00700474,14.050017 5.9751369,13.8228284 5.92202383,13.6050278 L12.9048297,10.1214697 C13.268498,10.492607 13.7740094,10.7273059 14.3351333,10.7273059 C15.4386353,10.7273059 16.3346839,9.83044306 16.3346839,8.72516755 C16.3346839,8.62252588 16.3196873,8.52489113 16.3028161,8.42475291 L20.4962488,6.33186429 C20.7986808,6.63040134 21.2110881,6.81377944 21.665361,6.81377944 C22.2046149,6.81377944 22.6782584,6.55404595 22.9831899,6.15850001 L25.6538398,6.76183274 C25.6219719,6.90640728 25.6001018,7.05786633 25.6001018,7.21433228 C25.6001018,7.37580515 25.6244714,7.5322711 25.6582138,7.68373015 L21.6822323,10.4487965 C21.2285842,10.0013039 20.6080986,9.72529794 19.9226277,9.72529794 C18.5385637,9.72529794 17.4131916,10.8499752 17.4131916,12.2381412 C17.4131916,13.626933 18.5385637,14.7516103 19.9226277,14.7516103 C20.6718343,14.7516103 21.3379346,14.4167732 21.7972064,13.893551 L26.0806189,16.6342087 L25.0602232,17.5316974 C24.4553591,16.9740527 23.6499151,16.6317052 22.7613648,16.6317052 C20.8817871,16.6317052 19.3583795,18.1575612 19.3583795,20.0395337 C19.3583795,21.9196287 20.8817871,23.4454847 22.7613648,23.4454847 C24.6409424,23.4454847 26.1637252,21.9196287 26.1637252,20.0395337 C26.1637252,19.4161734 25.995638,18.8322424 25.7025788,18.3309255 L29.444238,15.0401335 C29.8541459,15.3749707 30.3696551,15.5827575 30.9382773,15.5827575 C31.6899834,15.5827575 32.3535842,15.2285185 32.7884865,14.6833911 L41.4021759,18.8197251 C41.2778288,19.2058831 41.2090943,19.6145722 41.2090943,20.0395337 C41.2090943,22.2256761 42.981196,24 45.1657051,24 C47.3477148,24 49.1198166,22.2256761 49.1198166,20.0395337 C49.1198166,17.8515138 47.3502142,16.076564 45.1657051,16.076564 Z" id="bettercodes-logo" fill="#3AC2F5"></path>
        </g>
    </g>
</svg>