<?xml version="1.0" encoding="UTF-8"?>
<svg width="193px" height="137px" viewBox="0 0 193 137" version="1.1" xmlns="http://www.w3.org/2000/svg" xmlns:xlink="http://www.w3.org/1999/xlink">
    <!-- Generator: Sketch 42 (36781) - http://www.bohemiancoding.com/sketch -->
    <title>sinusitico-logo-lg</title>
    <desc>Created with Sketch.</desc>
    <defs></defs>
    <g id="Page-1" stroke="none" stroke-width="1" fill="none" fill-rule="evenodd">
        <g id="sinusitico-logo-lg">
            <path d="M0.565909091,85.4021756 L5.59848485,85.4021756 L5.59848485,130.075009 L24.6257576,130.075009 L24.6257576,134.824509 L0.565909091,134.824509 L0.565909091,85.4021756 Z M57.721591,122.985176 L61.7200759,125.050176 C57.7675309,132.392435 51.9307206,136.063509 44.2094698,136.063509 C38.6942907,136.063509 34.1443362,134.170611 30.5594698,130.384759 C26.9746034,126.598907 25.1821971,122.04448 25.1821971,116.721342 C25.1821971,111.398205 26.9860932,106.832306 30.5939395,103.023509 C34.2017858,99.2147121 38.6598221,97.3103423 43.9681819,97.3103423 C49.2765418,97.3103423 53.734578,99.0770468 57.3424244,102.610509 C60.9502707,106.143971 62.8231055,110.962256 62.960985,117.065509 L30.0079547,117.065509 C30.1458342,121.470864 31.536098,125.015746 34.178788,127.700259 C36.821478,130.384772 40.0271278,131.727009 43.7958335,131.727009 C50.0004099,131.727009 54.6422827,128.813094 57.721591,122.985176 Z M57.721591,113.004342 C57.0781535,109.516769 55.4695837,106.786408 52.8958335,104.813176 C50.3220832,102.839944 47.3577189,101.853342 44.0026516,101.853342 C37.1086778,101.853342 32.6046824,105.570305 30.4905304,113.004342 L57.721591,113.004342 Z M103.433334,98.274009 L103.433334,134.824509 L98.8143942,134.824509 L98.8143942,128.560676 C94.6320501,133.56259 89.8522999,136.063509 84.4750003,136.063509 C79.0977006,136.063509 74.5592359,134.147667 70.85947,130.315926 C67.159704,126.484184 65.3098487,121.918285 65.3098487,116.618092 C65.3098487,111.317899 67.1711938,106.774945 70.8939397,102.989092 C74.6166855,99.20324 79.0747218,97.3103423 84.2681821,97.3103423 C90.2429594,97.3103423 95.0916483,99.8571502 98.8143942,104.950842 L98.8143942,98.274009 L103.433334,98.274009 Z M99.0901518,116.721342 C99.0901518,112.545433 97.6883981,109.023496 94.8848487,106.155426 C92.0812994,103.287356 88.6458539,101.853342 84.5784093,101.853342 C80.5109648,101.853342 77.0755193,103.333244 74.27197,106.293092 C71.4684206,109.25294 70.0666669,112.751933 70.0666669,116.790176 C70.0666669,120.828418 71.4914002,124.327411 74.3409093,127.287259 C77.1904185,130.247107 80.6028844,131.727009 84.5784093,131.727009 C88.5539343,131.727009 91.9664002,130.304468 94.8159093,127.459342 C97.6654185,124.614217 99.0901518,121.034919 99.0901518,116.721342 Z M145.835985,84.1631756 L145.835985,134.824509 L141.217046,134.824509 L141.217046,128.560676 C137.034702,133.56259 132.243462,136.063509 126.843182,136.063509 C121.442903,136.063509 116.904438,134.159139 113.227652,130.350342 C109.550866,126.541545 107.7125,121.975647 107.7125,116.652509 C107.7125,111.329371 109.573845,106.774945 113.296591,102.989092 C117.019337,99.20324 121.477373,97.3103423 126.670834,97.3103423 C132.645611,97.3103423 137.4943,99.8571502 141.217046,104.950842 L141.217046,84.1631756 L145.835985,84.1631756 Z M141.492803,116.790176 C141.492803,112.614266 140.114029,109.080857 137.35644,106.189842 C134.59885,103.298828 131.151915,101.853342 127.015531,101.853342 C122.879146,101.853342 119.420721,103.333244 116.640152,106.293092 C113.859582,109.25294 112.469319,112.740461 112.469319,116.755759 C112.469319,120.771057 113.894052,124.27005 116.743561,127.252842 C119.59307,130.235635 122.959577,131.727009 126.843182,131.727009 C130.726787,131.727009 134.139253,130.31594 137.080682,127.493759 C140.022111,124.671578 141.492803,121.103753 141.492803,116.790176 Z" id="Leadin" fill="#2B2B2B"></path>
            <path d="M160.805682,98.274009 L165.562501,98.274009 L165.562501,104.813176 C169.331206,99.8112617 173.90414,97.3103423 179.28144,97.3103423 C182.03903,97.3103423 184.520823,98.0560293 186.726895,99.5474256 C188.932966,101.038822 190.495577,102.98908 191.414773,105.398259 C192.33397,107.807438 192.793561,111.352319 192.793561,116.033009 L192.793561,134.824509 L188.105682,134.824509 L188.105682,117.409676 C188.105682,113.141988 187.910356,110.251017 187.519698,108.736676 C187.129039,107.222335 186.53157,105.937459 185.727273,104.882009 C184.922976,103.826559 183.900386,103.023512 182.65947,102.472842 C181.418555,101.922173 179.913393,101.646842 178.14394,101.646842 C176.374487,101.646842 174.639529,102.082782 172.939016,102.954676 C171.238502,103.826569 169.790789,105.042612 168.595834,106.602842 C167.400879,108.163072 166.596594,109.769167 166.182955,111.421176 C165.769317,113.073184 165.562501,116.400095 165.562501,121.402009 L165.562501,134.824509 L160.805682,134.824509 L160.805682,98.274009 Z M151.080304,98.274009 L155.837122,98.274009 L155.837122,134.824509 L151.080304,134.824509 L151.080304,98.274009 Z M149.563637,88.0866756 C149.563637,87.0312259 149.9428,86.1134573 150.701137,85.3333423 C151.459474,84.5532273 152.378657,84.1631756 153.458713,84.1631756 C154.538769,84.1631756 155.457951,84.5417552 156.216288,85.2989256 C156.974626,86.0560961 157.353788,86.9738647 157.353788,88.052259 C157.353788,89.1306532 156.974626,90.0484218 156.216288,90.8055923 C155.457951,91.5627627 154.538769,91.9413423 153.458713,91.9413423 C152.378657,91.9413423 151.459474,91.5512906 150.701137,90.7711756 C149.9428,89.9910606 149.563637,89.0962362 149.563637,88.0866756 Z" id="Combined-Shape" fill="#26E0D3"></path>
            <path d="M168.85614,54.9282604 C164.079342,54.9282604 159.88628,57.4087673 157.480775,61.1509114 L128.063055,47.0440973 C128.221284,46.4175555 128.330333,45.7653532 128.330333,45.0896289 C128.330333,40.5947793 124.671828,36.944585 120.179414,36.944585 C115.676309,36.944585 112.026356,40.5947793 112.026356,45.0896289 C112.026356,46.3747881 112.351367,47.5701359 112.879508,48.6564268 L106.287356,54.4364357 L90.6184324,44.4288732 C90.8857108,43.6013247 91.0610453,42.7331473 91.0610453,41.813649 C91.0610453,40.6781756 90.8365316,39.6004381 90.434545,38.606097 L103.749281,29.3683469 C105.036494,30.7882233 106.890336,31.7077216 108.960139,31.7077216 C112.862403,31.7077216 116.018425,28.5407985 116.018425,24.6489686 C116.018425,23.622552 115.793911,22.6602863 115.400477,21.7835554 L122.208591,17.4405299 C123.202866,18.2851853 124.470834,18.8112238 125.875649,18.8112238 C128.045949,18.8112238 129.916897,17.5752471 130.876961,15.7790179 L146.763984,19.294495 L147.516639,15.8859363 L131.488494,12.3362453 C131.454282,12.0946097 131.405103,11.8529742 131.33668,11.6177537 L135.940281,8.67749759 C136.842613,9.53925992 138.061402,10.0738519 139.397793,10.0738519 C142.188179,10.0738519 144.44187,7.81787363 144.44187,5.03585678 C144.44187,2.25383994 142.188179,0 139.397793,0 C136.624514,0 134.368685,2.25383994 134.368685,5.03585678 C134.368685,5.20264949 134.394343,5.35447362 134.411449,5.51271286 L129.425105,8.69460453 C128.447936,7.90982345 127.220594,7.4179988 125.875649,7.4179988 C122.726041,7.4179988 120.179414,9.97334863 120.179414,13.1146113 C120.179414,13.5807755 120.254252,14.0405247 120.354748,14.4746134 L113.204519,19.0443059 C112.017803,18.1419146 110.563809,17.5902157 108.960139,17.5902157 C106.898889,17.5902157 105.060014,18.4840535 103.77494,19.8953764 L94.1272621,17.7249329 C94.1272621,17.6821655 94.135815,17.632983 94.135815,17.5902157 C94.135815,17.3314731 94.0930505,17.0898375 94.0609771,16.8482019 L102.722933,12.5286985 C103.71507,13.6577568 105.160511,14.3826636 106.781286,14.3826636 C109.770527,14.3826636 112.201691,11.9620309 112.201691,8.97045401 C112.201691,5.97246199 109.770527,3.54969098 106.781286,3.54969098 C103.792046,3.54969098 101.360882,5.97246199 101.360882,8.97045401 C101.360882,9.07951078 101.386541,9.18001408 101.392956,9.28907085 L92.5727715,13.6812788 C91.5378698,12.5885728 90.0753229,11.8936032 88.4481326,11.8936032 C86.4339232,11.8936032 84.6720246,12.9456802 83.6606434,14.5173808 L79.8289416,12.9884476 C79.8289416,12.9392651 79.8439092,12.8879443 79.8439092,12.8387618 C79.8439092,9.84718492 77.4148839,7.4179988 74.4149521,7.4179988 C72.8198351,7.4179988 71.4000528,8.127937 70.4057774,9.22064308 L68.0344843,8.27762276 C67.8505968,5.84629828 65.8385256,3.92604376 63.3560447,3.92604376 C60.7602377,3.92604376 58.6455317,6.0387514 58.6455317,8.63686859 C58.6455317,11.2435393 60.7602377,13.3476934 63.3560447,13.3476934 C64.8185916,13.3476934 66.1122186,12.6719691 66.9824768,11.6177537 L69.0373125,12.4367486 C69.0287596,12.5714658 69.0031009,12.7040446 69.0031009,12.8387618 C69.0031009,15.8282004 71.4257115,18.2595249 74.4149521,18.2595249 C76.1105657,18.2595249 77.5987713,17.4661903 78.5994613,16.2537356 L82.7839706,17.9344929 C82.8010764,18.1333611 82.8181822,18.3343677 82.8438409,18.5268209 L68.693058,25.5770204 C67.4421955,23.9967664 65.5284828,22.9703497 63.3560447,22.9703497 C59.5820749,22.9703497 56.5158581,26.0367695 56.5158581,29.8109891 C56.5158581,30.4054554 56.6163548,30.972123 56.7574777,31.5238219 L33.1450426,43.2848463 C31.383144,40.7123895 28.4259767,39.0166636 25.0689612,39.0166636 C19.6571099,39.0166636 15.2801603,43.4024565 15.2801603,48.8061126 C15.2801603,54.2097687 19.6571099,58.5870081 25.0689612,58.5870081 C30.4658448,58.5870081 34.857762,54.2097687 34.857762,48.8061126 C34.857762,48.0042246 34.7487125,47.227997 34.5669632,46.4838449 L58.4616443,34.5816883 C59.7060921,35.8497405 61.4359173,36.6516285 63.3560447,36.6516285 C67.1321527,36.6516285 70.1983695,33.5873471 70.1983695,29.8109891 C70.1983695,29.4602968 70.147052,29.1267113 70.0893199,28.7845725 L84.4389579,21.6338697 C85.4738595,22.6538712 86.885089,23.2804131 88.4395797,23.2804131 C90.2848691,23.2804131 91.9056448,22.3929903 92.9490993,21.0415417 L102.087879,23.1029285 C101.97883,23.5968915 101.903992,24.1143766 101.903992,24.6489686 C101.903992,25.2006676 101.987383,25.7352596 102.102847,26.2527447 L88.4973118,35.7000548 C86.9449593,34.1711216 84.8217004,33.2281013 82.476066,33.2281013 C77.7398943,33.2281013 73.8889484,37.0707487 73.8889484,41.813649 C73.8889484,46.5586878 77.7398943,50.4013352 82.476066,50.4013352 C85.0397995,50.4013352 87.319149,49.2573083 88.8907454,47.4696326 L103.548288,56.8335463 L100.056564,59.8999661 C97.9867609,57.9946802 95.230587,56.8249928 92.1900289,56.8249928 C85.7582436,56.8249928 80.5452475,62.0383342 80.5452475,68.4684069 C80.5452475,74.8920646 85.7582436,80.1054059 92.1900289,80.1054059 C98.6218142,80.1054059 103.832672,74.8920646 103.832672,68.4684069 C103.832672,66.3385923 103.257489,64.3434949 102.254661,62.6306621 L115.058361,51.3871229 C116.461038,52.5311498 118.225075,53.241088 120.170861,53.241088 C122.743147,53.241088 125.013944,52.0307716 126.502149,50.1682531 L155.977602,64.3007276 C155.552095,65.6201007 155.31689,67.016455 155.31689,68.4684069 C155.31689,75.9377265 161.3809,82 168.85614,82 C176.322827,82 182.386837,75.9377265 182.386837,68.4684069 C182.386837,60.9926722 176.33138,54.9282604 168.85614,54.9282604 Z" id="bettercodes-logo" fill="#26E0D3"></path>
        </g>
    </g>
</svg>