<?xml version="1.0" encoding="UTF-8"?>
<svg width="77px" height="20px" viewBox="0 0 77 20" version="1.1" xmlns="http://www.w3.org/2000/svg" xmlns:xlink="http://www.w3.org/1999/xlink">
    <!-- Generator: Sketch 42 (36781) - http://www.bohemiancoding.com/sketch -->
    <title>snobf</title>
    <desc>Created with Sketch.</desc>
    <defs></defs>
    <g id="Page-1" stroke="none" stroke-width="1" fill="none" fill-rule="evenodd">
        <g id="snobf" fill="#959595">
            <path d="M49.1865904,9.38303283 L46.4340462,9.38303283 L47.3715628,7.7509859 C47.6037338,7.34642652 47.4663379,6.82955998 47.0638241,6.59564547 C46.661871,6.3622946 46.147057,6.50095236 45.914886,6.90551175 L44.9772292,8.53755868 L43.6283662,6.18883149 L45.5035396,6.18883149 C45.9680218,6.18883149 46.3447389,5.81019998 46.3447389,5.34335734 C46.3447389,4.87665561 45.9680218,4.49788319 45.5035396,4.49788319 L43.6283662,4.49788319 L45.0041476,2.10237309 C45.2368794,1.69837736 45.0987825,1.18094718 44.6962687,0.947596315 C44.2937548,0.714245449 43.7795017,0.85290321 43.5473307,1.25689894 L42.1709884,3.65240904 L41.2334718,2.0203621 C41.0013008,1.61580272 40.4864869,1.47714496 40.0845338,1.71105947 C39.68202,1.94441034 39.5444839,2.46127687 39.7766549,2.86583625 L40.7143117,4.49788319 L38.0160248,4.49788319 L38.9535414,2.86583625 C39.1862732,2.46127687 39.0483165,1.94441034 38.6458026,1.71105947 C38.2432888,1.47714496 37.7290356,1.61580272 37.4968646,2.0203621 L36.5592078,3.65240904 L35.1835666,1.25689894 C34.9506946,0.85290321 34.4365816,0.714245449 34.0339276,0.947596315 C33.6319745,1.18094718 33.4940178,1.69837736 33.7261888,2.10237309 L35.1025311,4.49788319 L33.2273577,4.49788319 C32.7628755,4.49788319 32.3861584,4.87665561 32.3861584,5.34335734 C32.3861584,5.81019998 32.7628755,6.18883149 33.2273577,6.18883149 L35.1019703,6.18883149 L33.7531072,8.53755868 L32.8154504,6.90551175 C32.5832794,6.50095236 32.0690263,6.3622946 31.6665124,6.59564547 C31.2645593,6.82955998 31.1264625,7.34642652 31.3586335,7.7509859 L32.2962903,9.38303283 L29.5443068,9.38303283 C29.0799648,9.38303283 28.7031075,9.7612416 28.7031075,10.228507 C28.7031075,10.6953496 29.0799648,11.0739811 29.5443068,11.0739811 L32.2962903,11.0739811 L31.3586335,12.7060281 C31.1264625,13.1100238 31.2645593,13.627454 31.6665124,13.8609458 C31.7990013,13.9378839 31.9435474,13.9742393 32.0865512,13.9742393 C32.3773258,13.9742393 32.6599688,13.8223358 32.8154504,13.5515022 L33.7531072,11.9194553 L35.1019703,14.2676188 L33.2273577,14.2676188 C32.7628755,14.2676188 32.3861584,14.6463913 32.3861584,15.113093 C32.3861584,15.5799356 32.7628755,15.9585671 33.2273577,15.9585671 L35.1025311,15.9585671 L33.7261888,18.3540772 C33.4940178,18.758073 33.6319745,19.2755031 34.0339276,19.5089949 C34.1665567,19.5859331 34.3111027,19.6222885 34.4541066,19.6222885 C34.7448812,19.6222885 35.0273839,19.4703849 35.1835666,19.1995514 L36.5592078,16.8040413 L37.4968646,18.4360882 C37.6523463,18.7074854 37.93555,18.8588253 38.2263246,18.8588253 C38.3686275,18.8588253 38.5133138,18.8224699 38.6458026,18.7455318 C39.0483165,18.51204 39.1858526,17.9946098 38.9535414,17.5906141 L38.0160248,15.9585671 L40.7137509,15.9585671 L39.7766549,17.5906141 C39.5444839,17.9946098 39.68202,18.51204 40.0845338,18.7455318 C40.2170227,18.8224699 40.3615688,18.8588253 40.5040119,18.8588253 C40.7947864,18.8588253 41.0779902,18.7074854 41.2334718,18.4360882 L42.1709884,16.8040413 L43.5473307,19.1995514 C43.7028123,19.4703849 43.9860161,19.6222885 44.2762298,19.6222885 C44.4192337,19.6222885 44.5637798,19.5859331 44.6962687,19.5089949 C45.0987825,19.2755031 45.2363186,18.758073 45.0041476,18.3540772 L43.6283662,15.9585671 L45.5035396,15.9585671 C45.9680218,15.9585671 46.3447389,15.5799356 46.3447389,15.113093 C46.3447389,14.6463913 45.9680218,14.2676188 45.5035396,14.2676188 L43.6278054,14.2676188 L44.9766684,11.9194553 L45.9143252,13.5515022 C46.0703677,13.8228994 46.3530107,13.9742393 46.6437852,13.9742393 C46.7860881,13.9742393 46.9313352,13.9378839 47.0638241,13.8609458 C47.4657771,13.627454 47.6037338,13.1100238 47.3715628,12.7060281 L46.4340462,11.0739811 L49.1860296,11.0739811 C49.6509324,11.0739811 50.0272289,10.6953496 50.0272289,10.228507 C50.0277897,9.7612416 49.6509324,9.38303283 49.1865904,9.38303283 Z M41.685336,14.2676188 L37.0450004,14.2676188 L34.7245522,10.228507 L37.0450004,6.18883149 L41.685336,6.18883149 L44.0056441,10.228507 L41.685336,14.2676188 Z" id="Fill-1"></path>
            <path d="M52.1142924,1.89217391 L57.2257081,1.89217391 C57.8717039,1.89217391 58.5257648,1.96115873 59.1879104,2.09913043 C59.850056,2.23710214 60.4435557,2.4724621 60.9684272,2.80521739 C61.4932988,3.13797268 61.9212645,3.58840296 62.2523374,4.15652174 C62.5834102,4.72464052 62.7489441,5.43883628 62.7489441,6.29913043 C62.7489441,7.20812049 62.4744,7.99941692 61.9253036,8.67304348 C61.3762073,9.34667003 60.6413981,9.78898445 59.7208542,10 L59.7208542,10.0486957 C60.8351969,10.1785514 61.7597644,10.6127499 62.4945845,11.3513043 C63.2294047,12.0898588 63.5968093,13.0921676 63.5968093,14.3582609 C63.5968093,15.0724673 63.447425,15.7257941 63.148652,16.3182609 C62.8498789,16.9107276 62.4259506,17.413911 61.8768542,17.8278261 C61.3277578,18.2417412 60.6575473,18.5623177 59.8662025,18.7895652 C59.0748577,19.0168127 58.1866269,19.1304348 57.2014834,19.1304348 L52.1142924,19.1304348 L52.1142924,1.89217391 Z M53.8584722,9.44 L57.3710565,9.44 C57.7909537,9.44 58.214882,9.39130483 58.6428542,9.29391304 C59.0708264,9.19652125 59.4624554,9.0301461 59.8177531,8.79478261 C60.1730507,8.55941911 60.459707,8.24695847 60.6777306,7.8573913 C60.8957542,7.46782414 61.0047643,6.98898835 61.0047643,6.42086957 C61.0047643,5.86898275 60.8957542,5.40232075 60.6777306,5.02086957 C60.459707,4.63941838 60.1649759,4.32695774 59.7935284,4.08347826 C59.4220808,3.83999878 58.9860402,3.66550777 58.4853935,3.56 C57.9847468,3.45449223 57.4518083,3.40173913 56.8865621,3.40173913 L53.8584722,3.40173913 L53.8584722,9.44 Z M53.8584722,17.6208696 L57.1045845,17.6208696 C57.7344304,17.6208696 58.3360049,17.5600006 58.9093261,17.4382609 C59.4826473,17.3165211 59.9832865,17.1217405 60.4112587,16.853913 C60.8392309,16.5860856 61.182411,16.2371036 61.4408093,15.8069565 C61.6992076,15.3768094 61.8284048,14.8614523 61.8284048,14.2608696 C61.8284048,13.124632 61.4448505,12.2765245 60.6777306,11.7165217 C59.9106107,11.1565189 58.8245466,10.8765217 57.4195059,10.8765217 L53.8584722,10.8765217 L53.8584722,17.6208696 Z M67.5956183,19.1304348 L65.8514385,19.1304348 L65.8514385,1.89217391 L76.1953936,1.89217391 L76.1953936,3.45043478 L67.5956183,3.45043478 L67.5956183,9.44 L75.5897756,9.44 L75.5897756,10.973913 L67.5956183,10.973913 L67.5956183,19.1304348 Z" id="SN-BF"></path>
            <path d="M25.5657304,16.573913 L25.6141798,16.573913 L25.6141798,1.89217391 L27.3583596,1.89217391 L27.3583596,19.1304348 L25.1781349,19.1304348 L15.1975506,4.3026087 L15.1491012,4.3026087 L15.1491012,19.1304348 L13.4049214,19.1304348 L13.4049214,1.89217391 L15.5851461,1.89217391 L25.5657304,16.573913 Z M9.72103371,4.66782609 C9.34958616,4.1484032 8.87317145,3.73043637 8.29177528,3.41391304 C7.71037912,3.09738972 7.00786929,2.93913043 6.18422472,2.93913043 C5.76432749,2.93913043 5.33636173,3.00405732 4.90031461,3.13391304 C4.46426748,3.26376877 4.06860103,3.46260736 3.71330337,3.73043478 C3.35800571,3.99826221 3.0713494,4.33507043 2.85332584,4.74086957 C2.63530228,5.1466687 2.52629213,5.62550449 2.52629213,6.1773913 C2.52629213,6.72927812 2.63126487,7.18376633 2.84121348,7.54086957 C3.0511621,7.8979728 3.32974358,8.20231758 3.67696629,8.45391304 C4.024189,8.7055085 4.41985546,8.91246296 4.86397753,9.07478261 C5.3080996,9.23710226 5.77240207,9.39941948 6.25689888,9.56173913 C6.85444494,9.75652271 7.45601944,9.9675351 8.06164045,10.1947826 C8.66726146,10.4220301 9.21231218,10.718259 9.69680899,11.0834783 C10.1813058,11.4486975 10.5769722,11.9113015 10.8838202,12.4713043 C11.1906682,13.0313071 11.3440899,13.741445 11.3440899,14.6017391 C11.3440899,15.4620333 11.178556,16.2046346 10.8474831,16.8295652 C10.5164103,17.4544959 10.0884446,17.969853 9.56357303,18.3756522 C9.0387015,18.7814513 8.4411644,19.0817382 7.77094382,19.2765217 C7.10072324,19.4713053 6.4264753,19.5686957 5.74817978,19.5686957 C5.23138318,19.5686957 4.71459434,19.5159426 4.19779775,19.4104348 C3.68100116,19.304927 3.1884368,19.1466677 2.72008989,18.9356522 C2.25174298,18.7246366 1.81570239,18.4568132 1.41195506,18.1321739 C1.00820772,17.8075346 0.652915392,17.434205 0.346067416,17.0121739 L1.848,15.8921739 C2.21944755,16.5089886 2.7402738,17.0243458 3.41049438,17.4382609 C4.08071496,17.852176 4.86801046,18.0591304 5.77240449,18.0591304 C6.20845162,18.0591304 6.65256703,17.9901456 7.10476404,17.8521739 C7.55696106,17.7142022 7.96473976,17.5031898 8.32811236,17.2191304 C8.69148496,16.935071 8.99025351,16.586089 9.22442697,16.1721739 C9.45860042,15.7582588 9.57568539,15.2753651 9.57568539,14.7234783 C9.57568539,14.1228955 9.45860042,13.6237701 9.22442697,13.226087 C8.99025351,12.8284038 8.67937272,12.4956535 8.29177528,12.2278261 C7.90417784,11.9599987 7.46006243,11.7368125 6.95941573,11.5582609 C6.45876903,11.3797093 5.93390537,11.2011603 5.38480899,11.0226087 C4.81956272,10.8440571 4.26239975,10.6411606 3.71330337,10.413913 C3.16420699,10.1866655 2.67164263,9.89043661 2.23559551,9.52521739 C1.79954838,9.15999817 1.44829347,8.7095679 1.18182022,8.17391304 C0.915346982,7.63825819 0.78211236,6.98087346 0.78211236,6.20173913 C0.78211236,5.3739089 0.947646285,4.65971315 1.2787191,4.05913043 C1.60979192,3.45854772 2.04179509,2.96348021 2.57474157,2.57391304 C3.10768806,2.18434588 3.69715033,1.90029075 4.34314607,1.72173913 C4.98914181,1.54318751 5.62705303,1.45391304 6.25689888,1.45391304 C7.41969121,1.45391304 8.41289476,1.6608675 9.23653933,2.07478261 C10.0601839,2.48869772 10.6819455,2.9797073 11.1018427,3.54782609 L9.72103371,4.66782609 Z" id="Combined-Shape"></path>
        </g>
    </g>
</svg>