<?xml version="1.0" encoding="UTF-8"?>
<svg width="41px" height="41px" viewBox="0 0 41 41" version="1.1" xmlns="http://www.w3.org/2000/svg" xmlns:xlink="http://www.w3.org/1999/xlink">
    <!-- Generator: Sketch 42 (36781) - http://www.bohemiancoding.com/sketch -->
    <title>user-thumbnail</title>
    <desc>Created with Sketch.</desc>
    <defs></defs>
    <g id="Page-1" stroke="none" stroke-width="1" fill="none" fill-rule="evenodd">
        <g id="user-thumbnail" fill-rule="nonzero" fill="#1A1A1A">
            <path d="M20.5,0 C9.178875,0 0,9.178875 0,20.5 C0,31.821125 9.178875,41 20.5,41 C31.821125,41 41,31.821125 41,20.5 C41,9.178875 31.821125,0 20.5,0 Z M33.7447083,31.2710417 C33.2988333,30.2699583 32.3968333,29.5780833 30.5484167,29.151 C26.6312083,28.2472917 22.9839167,27.454625 24.7520417,24.1199583 C30.12475,13.9690417 26.1750833,8.54166667 20.5,8.54166667 C14.7121667,8.54166667 10.8581667,14.1774583 16.2479583,24.1199583 C18.0690417,27.475125 14.2867917,28.2660833 10.4515833,29.151 C8.59975,29.5780833 7.70458333,30.2750833 7.262125,31.2795833 C4.86191667,28.336125 3.41666667,24.584625 3.41666667,20.5 C3.41666667,11.08025 11.08025,3.41666667 20.5,3.41666667 C29.91975,3.41666667 37.5833333,11.08025 37.5833333,20.5 C37.5833333,24.5812083 36.1397917,28.3292917 33.7447083,31.2710417 Z" id="Shape"></path>
        </g>
    </g>
</svg>